inDegrees=no
num_controls=7
num_derivatives=13
num_iterations=137
num_multipliers=7
num_parameters=0
num_slacks=7
num_states=26
objective=0.499059
objective_accelerations=0.032315
objective_balance=0.003327
objective_effort=0.036210
objective_height=0.421742
objective_ligament=0.005466
solver_duration=1456.608646
status=Solve_Succeeded
success=true
DataType=double
version=3
OpenSimVersion=4.5
endheader
time	/jointset/ground_pelvis/pelvis_tilt/value	/jointset/ground_pelvis/pelvis_tx/value	/jointset/ground_pelvis/pelvis_ty/value	/jointset/hip_r/hip_flexion_r/value	/jointset/hip_r/hip_adduction_r/value	/jointset/hip_r/hip_rotation_r/value	/jointset/back/lumbar_extension/value	/jointset/patellofemoral_r/patellar_flexion_r/value	/jointset/knee_r/knee_flexion_r/value	/jointset/knee_r/knee_adduction_r/value	/jointset/knee_r/knee_rotation_r/value	/jointset/ankle_r/ankle_angle_r/value	/jointset/subtalar_r/subtalar_angle_r/value	/jointset/ground_pelvis/pelvis_tilt/speed	/jointset/ground_pelvis/pelvis_tx/speed	/jointset/ground_pelvis/pelvis_ty/speed	/jointset/hip_r/hip_flexion_r/speed	/jointset/hip_r/hip_adduction_r/speed	/jointset/hip_r/hip_rotation_r/speed	/jointset/back/lumbar_extension/speed	/jointset/patellofemoral_r/patellar_flexion_r/speed	/jointset/knee_r/knee_flexion_r/speed	/jointset/knee_r/knee_adduction_r/speed	/jointset/knee_r/knee_rotation_r/speed	/jointset/ankle_r/ankle_angle_r/speed	/jointset/subtalar_r/subtalar_angle_r/speed	/forceset/tau_hip_flexion_r	/forceset/tau_hip_adduction_r	/forceset/tau_hip_rotation_r	/forceset/tau_knee_flexion_r	/forceset/tau_ankle_angle_r	/forceset/tau_subtalar_angle_r	/forceset/tau_lumbar_extension	lambda_cid13_p0	lambda_cid14_p0	lambda_cid14_p1	lambda_cid14_p2	lambda_cid14_p3	lambda_cid14_p4	lambda_cid14_p5	/jointset/ground_pelvis/pelvis_tilt/accel	/jointset/ground_pelvis/pelvis_tx/accel	/jointset/ground_pelvis/pelvis_ty/accel	/jointset/hip_r/hip_flexion_r/accel	/jointset/hip_r/hip_adduction_r/accel	/jointset/hip_r/hip_rotation_r/accel	/jointset/back/lumbar_extension/accel	/jointset/patellofemoral_r/patellar_flexion_r/accel	/jointset/knee_r/knee_flexion_r/accel	/jointset/knee_r/knee_adduction_r/accel	/jointset/knee_r/knee_rotation_r/accel	/jointset/ankle_r/ankle_angle_r/accel	/jointset/subtalar_r/subtalar_angle_r/accel	gamma_cid13_p0	gamma_cid14_p0	gamma_cid14_p1	gamma_cid14_p2	gamma_cid14_p3	gamma_cid14_p4	gamma_cid14_p5
1.5	-0.1009447602231311	0.06283418318996405	0.8727486010880353	0.6537410819694583	-0.225377328092393	-0.1469780084378393	-0.2768152480952922	0.6399781283892595	0.6399781283892236	0.03700410033955168	0.1739056697362174	0.2580564621452759	0.06158742973865725	0.2153058881295057	0.114715570154195	0.3175037622147859	-1.408853820745817	0.02344241053507209	-0.2787777525605859	0.6978520682517193	-1.725117817198537	-1.725117817198207	0.268734421946964	0.002267387667904667	-0.6185396087192614	-0.1485127907351196	-0.05934325481362981	-0.003185174998287469	0.00629279481095607	-0.3261057697791952	0.06213162068729686	-0.02323373663419783	0.1182371058079664	-34.59786162972039	-22.46737908959999	-10.99120237066735	-1.252245798424209	3.193174013278375	-663.5488036672164	46.35157805676014	0.03019279266364185	0.2567932953142024	-0.4331499953734642	-0.7049327727310475	-0.02992866895114732	-0.516072893967092	1.179722784740427	-1.022612798798781	-1.022612798798791	0.4298943538443119	0.00404622092033256	-0.4719172488901541	-0.05830138585426871	1.267236802640456e-07	1.585596199143737e-07	-6.778850105525515e-07	1.305000267280785e-06	-7.844094270383969e-09	1.734869916247558e-07	-9.942248419879595e-07
1.51	-0.09879060390715171	0.06399405350285575	0.8759012713085165	0.6396191620774273	-0.2251452654301594	-0.1497906086062918	-0.2697785567573885	0.6226782430040585	0.6226782430040201	0.03971496285484358	0.1739288001570033	0.2518481089967934	0.06009842286180685	0.215494867272214	0.1172437754110196	0.3129642587297115	-1.415338423257076	0.02296609702465238	-0.2837208018699523	0.7093874474945345	-1.734611147408958	-1.734611147408743	0.2734304160717991	0.002348212970903644	-0.6230387028629936	-0.1492650138590468	-0.05396161786837311	-0.003631696566560774	0.005568232433819348	-0.3230751235302504	0.06669220723584393	-0.02509439501117156	0.1132239778114299	-35.47360339702212	-20.93318374524694	-11.48309113115687	-1.228159691530699	2.602317151781069	-660.5838116224062	45.36422851450791	0.008691012814946952	0.248627889813878	-0.474216808490584	-0.5914438904897702	-0.05693575127556683	-0.4799740500927548	1.12563271861493	-0.8755048057217575	-0.8755048057389428	0.4882622607814407	0.008764813378246736	-0.4250395372264502	-0.0801198919509947	1.372626801719954e-07	1.625856371670518e-07	-7.930664003087045e-07	1.346526595974406e-06	1.624158698524369e-09	1.817103471791779e-07	-1.084735664051149e-06
1.52	-0.0966354696922069	0.06517876461810475	0.8790065732374638	0.6254381521802427	-0.2249180565148682	-0.1526519498879709	-0.2626294741821459	0.6052908619820391	0.6052908619820062	0.04247254737517826	0.173952471656497	0.2455975380988508	0.05860260633045933	0.2155014679245693	0.1196837306256518	0.3080301039079971	-1.420671821774996	0.02247166114670418	-0.2885259752061727	0.7203303157198869	-1.742616944561698	-1.742616944561597	0.2780788229557655	0.002375603409444423	-0.626983158611191	-0.1498747216345352	-0.04857998092311901	-0.004078218134830566	0.004843670056678294	-0.3200444772813059	0.07125279378439285	-0.02695505338814055	0.1082108498148897	-36.31570583490728	-19.40710447510764	-11.96716487986983	-1.215870256892332	2.005503173893239	-657.7682847275139	44.46547581735889	-0.006282905407175802	0.2391432868759014	-0.5120802627014801	-0.4746919740635125	-0.03355314245685666	-0.4884976993379018	1.061220581247704	-0.7251061872624844	-0.7251061872624845	0.4203769056706302	-0.006640751971335714	-0.3609895697829604	-0.02979831616649018	1.470001846426497e-07	1.658503191013382e-07	-9.008910726919666e-07	1.382468276345542e-06	1.088606013658776e-08	1.895813931253274e-07	-1.169409733789798e-06
1.53	-0.09448121974471022	0.06638736739491574	0.8820606047576981	0.6112096799736367	-0.2246959404959421	-0.1555608064480586	-0.255374068912484	0.5878309274332848	0.5878309274332841	0.04527637576022918	0.1739763187440337	0.239310256109936	0.05710132237391011	0.2153165471663513	0.1220150974066593	0.3027150729517473	-1.424818342911135	0.02194829507305875	-0.2932229893959719	0.730633872522319	-1.74911255866553	-1.74911255866537	0.2826739513609574	0.002385154682367907	-0.6303819712283912	-0.1503592050695328	-0.04310785037176583	-0.004536052284481779	0.004138363612504218	-0.3170235542635961	0.0758008583929565	-0.02902507576860064	0.103113933169217	-37.11970082771816	-17.90186702397342	-12.55332240731428	-1.178729304134571	1.494724277624246	-655.0126068665001	43.41075992360404	-0.02937570814590931	0.2268792287849615	-0.5503433718350441	-0.3539703156547087	-0.06207592159223631	-0.4567056850667868	0.9973933759315651	-0.5732101721537736	-0.5732101721449849	0.4770849769999527	0.003701219290472153	-0.3156146798892867	-0.05434099460599581	1.558861002111774e-07	1.683060822598334e-07	-1.000899232866532e-06	1.412476267874038e-06	1.992871307312839e-08	1.970781101126873e-07	-1.247882254183622e-06
1.54	-0.09232977481422852	0.06761863301055072	0.8850596601964204	0.5969458749292089	-0.2244791276541058	-0.1585159136312972	-0.2480191340455615	0.5703137525134483	0.5703137525134893	0.04812575626314417	0.1740000509747707	0.2329917284804086	0.05559588005552307	0.2149404645234879	0.1242162983904465	0.2970348876055703	-1.427738389337899	0.02141102572845671	-0.2977760998364053	0.7402362351723996	-1.754065018777772	-1.754065018777553	0.2871892465284061	0.002352632049942662	-0.6332322867336183	-0.1507063940021135	-0.03763571982041564	-0.004993886434128887	0.003433057168309542	-0.3140026312458858	0.08034892300152269	-0.03109509814905442	0.09801701652353979	-37.8811395326296	-16.40527528789246	-13.13097053574483	-1.15439481728485	0.9770022148784137	-652.4183436560229	42.45039995907591	-0.04451528233649455	0.2131101274320306	-0.5851111406869236	-0.2293970321885762	-0.03633379664818943	-0.4597169494647221	0.9209817507772903	-0.4164753889444424	-0.4164753889444422	0.4044102581220574	-0.01505553304111106	-0.2512901473880744	-0.002339415683042005	1.656012206961139e-07	1.702056391448163e-07	-1.113863797126111e-06	1.437698393761873e-06	3.027926308299066e-08	2.046337502255369e-07	-1.328750003500754e-06
1.55	-0.09018304444864815	0.06887123661245485	0.888000138333464	0.5826590514228474	-0.2242678260471093	-0.1615160452185783	-0.2405717807478638	0.5527549006870517	0.5527549006870693	0.05101987125269883	0.174023493873683	0.2266474898028018	0.05408758485755209	0.2143743680610381	0.1262799794463232	0.2910048165547774	-1.429413126088285	0.02084547573255847	-0.302223909622145	0.7491059855785041	-1.757431134535683	-1.757431134535415	0.2916171198959747	0.002329491965049688	-0.635516061129329	-0.150929580472057	-0.03206581486260601	-0.005513888990646748	0.002738382491397645	-0.3111147923374103	0.08514915285156043	-0.03341448511189894	0.09285765645469274	-38.59560484919857	-14.84464817068369	-13.81407386672325	-1.103688358541386	0.4398939104758249	-649.9015916048211	41.33396172274346	-0.06732581915465354	0.1993404585494039	-0.6203002759982583	-0.1045138193672636	-0.06712119809528604	-0.4331005045954813	0.8507058669310633	-0.255584314371284	-0.2555843143639731	0.4593901513847083	0.003343160288642731	-0.2019852393683601	-0.02888174552689797	1.762717294543038e-07	1.714643496711871e-07	-1.241756392179291e-06	1.457406370107208e-06	4.213673798167998e-08	2.122572800264509e-07	-1.412377473099087e-06
1.56	-0.0880429088458925	0.07014374569769405	0.890878646722255	0.5683618801843939	-0.2240622710594752	-0.1645598124060111	-0.2330395831098263	0.5351706067740399	0.5351706067740475	0.05395774783099232	0.1740465626530498	0.2202834005504963	0.05257774309830639	0.2136215119603992	0.1281973950574569	0.2846409379550767	-1.429807935754819	0.02026170185527116	-0.3065032198665608	0.7572051032407957	-1.759153436099869	-1.759153436099554	0.2959415642759581	0.002277808140238227	-0.6372024016732688	-0.1510157062570754	-0.02649590990480288	-0.006033891547161853	0.00204370781450253	-0.3082269534289361	0.08994938270160005	-0.03573387207473993	0.08769829638583841	-39.2587999477828	-13.29302413280322	-14.48793070435616	-1.066819276440314	-0.1049448820816782	-647.5551476478687	40.31698368559491	-0.08186720997454644	0.1838570384836437	-0.651872650468463	0.02658838458189578	-0.03997857292601455	-0.4260170411999488	0.7668552020145691	-0.08771255019966613	-0.08771255019966614	0.3837244606050956	-0.02076428102483785	-0.131803377033641	0.02507272130202065	1.872982799909901e-07	1.737576744541233e-07	-1.373353844217981e-06	1.478693287715049e-06	5.293532967023084e-08	2.259985405656294e-07	-1.496722334224296e-06
